<svg width="1512" height="72" viewBox="0 0 1512 72" fill="none" xmlns="http://www.w3.org/2000/svg">
<path d="M378.902 23.6813H402.583V47.3627H378.902V23.6813Z" fill="#229B3C"/>
<path d="M0 23.6813H23.6814V47.3627H0V23.6813Z" fill="#229B3C"/>
<path d="M568.353 23.6813H592.034V47.3627H568.353V23.6813Z" fill="#229B3C"/>
<path d="M189.451 23.6813H213.132V47.3627H189.451V23.6813Z" fill="#229B3C"/>
<path d="M473.627 23.6813H497.309V47.3627H473.627V23.6813Z" fill="#229B3C"/>
<path d="M94.7254 23.6813H118.407V47.3627H94.7254V23.6813Z" fill="#229B3C"/>
<path d="M663.078 23.6813H686.759V47.3627H663.078V23.6813Z" fill="#229B3C"/>
<path d="M284.176 23.6813H307.858V47.3627H284.176V23.6813Z" fill="#229B3C"/>
<path d="M426.264 23.6813H449.946V47.3627H426.264V23.6813Z" fill="#229B3C"/>
<path d="M47.3627 23.6813H71.0441V47.3627H47.3627V23.6813Z" fill="#229B3C"/>
<path d="M615.715 23.6813H639.397V47.3627H615.715V23.6813Z" fill="#229B3C"/>
<path d="M236.814 23.6813H260.495V47.3627H236.814V23.6813Z" fill="#229B3C"/>
<path d="M520.99 23.6813H544.671V47.3627H520.99V23.6813Z" fill="#229B3C"/>
<path d="M142.088 23.6813H165.77V47.3627H142.088V23.6813Z" fill="#229B3C"/>
<path d="M710.441 23.6813H734.122V47.3627H710.441V23.6813Z" fill="#229B3C"/>
<path d="M331.539 23.6813H355.22V47.3627H331.539V23.6813Z" fill="#229B3C"/>
<path d="M402.583 0H426.264V23.6813H402.583V0Z" fill="#229B3C"/>
<path d="M23.6814 0H47.3627V23.6813H23.6814V0Z" fill="#229B3C"/>
<path d="M402.583 47.3627H426.264V71.0441H402.583V47.3627Z" fill="#229B3C"/>
<path d="M23.6814 47.3627H47.3627V71.0441H23.6814V47.3627Z" fill="#229B3C"/>
<path d="M592.034 0H615.715L615.715 23.6813H592.034V0Z" fill="#229B3C"/>
<path d="M213.132 0H236.814L236.814 23.6813H213.132L213.132 0Z" fill="#229B3C"/>
<path d="M592.034 47.3627H615.715L615.715 71.0441H592.034V47.3627Z" fill="#229B3C"/>
<path d="M213.132 47.3627H236.814L236.814 71.0441H213.132L213.132 47.3627Z" fill="#229B3C"/>
<path d="M497.309 0H520.99V23.6813H497.309V0Z" fill="#229B3C"/>
<path d="M118.407 0H142.088L142.088 23.6813H118.407L118.407 0Z" fill="#229B3C"/>
<path d="M497.309 47.3627H520.99V71.0441H497.309V47.3627Z" fill="#229B3C"/>
<path d="M118.407 47.3627H142.088L142.088 71.0441H118.407L118.407 47.3627Z" fill="#229B3C"/>
<path d="M686.759 0H710.441V23.6813H686.759V0Z" fill="#229B3C"/>
<path d="M307.858 0H331.539L331.539 23.6813H307.858V0Z" fill="#229B3C"/>
<path d="M686.759 47.3627H710.441V71.0441H686.759V47.3627Z" fill="#229B3C"/>
<path d="M307.858 47.3627H331.539L331.539 71.0441H307.858V47.3627Z" fill="#229B3C"/>
<path d="M449.946 0H473.627V23.6813H449.946L449.946 0Z" fill="#229B3C"/>
<path d="M71.0441 0H94.7254V23.6813H71.0441V0Z" fill="#229B3C"/>
<path d="M449.946 47.3627H473.627V71.0441H449.946L449.946 47.3627Z" fill="#229B3C"/>
<path d="M71.0441 47.3627H94.7254V71.0441H71.0441V47.3627Z" fill="#229B3C"/>
<path d="M639.397 0H663.078L663.078 23.6813H639.397V0Z" fill="#229B3C"/>
<path d="M260.495 0H284.176V23.6813H260.495L260.495 0Z" fill="#229B3C"/>
<path d="M639.397 47.3627H663.078L663.078 71.0441H639.397V47.3627Z" fill="#229B3C"/>
<path d="M260.495 47.3627H284.176V71.0441H260.495L260.495 47.3627Z" fill="#229B3C"/>
<path d="M544.671 0H568.353V23.6813H544.671L544.671 0Z" fill="#229B3C"/>
<path d="M165.77 0H189.451V23.6813H165.77V0Z" fill="#229B3C"/>
<path d="M544.671 47.3627H568.353V71.0441H544.671L544.671 47.3627Z" fill="#229B3C"/>
<path d="M165.77 47.3627H189.451V71.0441H165.77V47.3627Z" fill="#229B3C"/>
<path d="M734.122 0H757.803V23.6814L734.122 23.6813L734.122 0Z" fill="#229B3C"/>
<path d="M355.22 0H378.902V23.6813H355.22V0Z" fill="#229B3C"/>
<path d="M734.122 47.3627L757.803 47.3627V71.0441H734.122L734.122 47.3627Z" fill="#229B3C"/>
<path d="M355.22 47.3627H378.902V71.0441H355.22V47.3627Z" fill="#229B3C"/>
<path d="M1136.71 23.7254H1160.39V47.4068H1136.71V23.7254Z" fill="#229B3C"/>
<path d="M757.803 23.7254H781.485V47.4068H757.803V23.7254Z" fill="#229B3C"/>
<path d="M1326.16 23.7254H1349.84V47.4068H1326.16V23.7254Z" fill="#229B3C"/>
<path d="M947.254 23.7254H970.936V47.4068H947.254V23.7254Z" fill="#229B3C"/>
<path d="M1231.43 23.7254H1255.11V47.4068H1231.43V23.7254Z" fill="#229B3C"/>
<path d="M852.529 23.7254H876.21V47.4068H852.529V23.7254Z" fill="#229B3C"/>
<path d="M1420.88 23.7254H1444.56V47.4068H1420.88V23.7254Z" fill="#229B3C"/>
<path d="M1041.98 23.7254H1065.66V47.4068H1041.98V23.7254Z" fill="#229B3C"/>
<path d="M1184.07 23.7254H1207.75V47.4068H1184.07V23.7254Z" fill="#229B3C"/>
<path d="M805.166 23.7254H828.848V47.4068H805.166V23.7254Z" fill="#229B3C"/>
<path d="M1373.52 23.7254H1397.2V47.4068H1373.52V23.7254Z" fill="#229B3C"/>
<path d="M994.617 23.7254H1018.3V47.4068H994.617V23.7254Z" fill="#229B3C"/>
<path d="M1278.79 23.7254H1302.47V47.4068H1278.79V23.7254Z" fill="#229B3C"/>
<path d="M899.892 23.7254H923.573V47.4068H899.892V23.7254Z" fill="#229B3C"/>
<path d="M1468.24 23.7254H1491.93V47.4068H1468.24V23.7254Z" fill="#229B3C"/>
<path d="M1089.34 23.7254H1113.02V47.4068H1089.34V23.7254Z" fill="#229B3C"/>
<path d="M1160.39 0.0440674H1184.07V23.7254H1160.39V0.0440674Z" fill="#229B3C"/>
<path d="M781.485 0.0440674H805.166V23.7254H781.485V0.0440674Z" fill="#229B3C"/>
<path d="M1160.39 47.4068H1184.07V71.0882H1160.39V47.4068Z" fill="#229B3C"/>
<path d="M781.485 47.4068H805.166V71.0882H781.485V47.4068Z" fill="#229B3C"/>
<path d="M1349.84 0.0440674H1373.52V23.7254H1349.84V0.0440674Z" fill="#229B3C"/>
<path d="M970.936 0.0440674H994.617V23.7254H970.936V0.0440674Z" fill="#229B3C"/>
<path d="M1349.84 47.4068H1373.52V71.0882H1349.84V47.4068Z" fill="#229B3C"/>
<path d="M970.936 47.4068H994.617V71.0882H970.936V47.4068Z" fill="#229B3C"/>
<path d="M1255.11 0.0440674H1278.79V23.7254H1255.11L1255.11 0.0440674Z" fill="#229B3C"/>
<path d="M876.21 0.0440674H899.892V23.7254H876.21V0.0440674Z" fill="#229B3C"/>
<path d="M1255.11 47.4068H1278.79V71.0882H1255.11L1255.11 47.4068Z" fill="#229B3C"/>
<path d="M876.21 47.4068H899.892V71.0882H876.21V47.4068Z" fill="#229B3C"/>
<path d="M1444.56 0.0440674H1468.24L1468.24 23.7254H1444.56V0.0440674Z" fill="#229B3C"/>
<path d="M1065.66 0.0440674H1089.34V23.7254H1065.66V0.0440674Z" fill="#229B3C"/>
<path d="M1444.56 47.4068H1468.24L1468.24 71.0882H1444.56V47.4068Z" fill="#229B3C"/>
<path d="M1065.66 47.4068H1089.34V71.0882H1065.66V47.4068Z" fill="#229B3C"/>
<path d="M1207.75 0.0440674H1231.43V23.7254H1207.75V0.0440674Z" fill="#229B3C"/>
<path d="M828.848 0.0440674H852.529V23.7254H828.848V0.0440674Z" fill="#229B3C"/>
<path d="M1207.75 47.4068H1231.43V71.0882H1207.75V47.4068Z" fill="#229B3C"/>
<path d="M828.848 47.4068H852.529V71.0882H828.848V47.4068Z" fill="#229B3C"/>
<path d="M1397.2 0.0440674H1420.88L1420.88 23.7254H1397.2V0.0440674Z" fill="#229B3C"/>
<path d="M1018.3 0.0440674H1041.98V23.7254H1018.3V0.0440674Z" fill="#229B3C"/>
<path d="M1397.2 47.4068H1420.88L1420.88 71.0882H1397.2V47.4068Z" fill="#229B3C"/>
<path d="M1018.3 47.4068H1041.98V71.0882H1018.3V47.4068Z" fill="#229B3C"/>
<path d="M1302.47 0.0440674H1326.16L1326.16 23.7254H1302.47V0.0440674Z" fill="#229B3C"/>
<path d="M923.573 0.0440674H947.254V23.7254H923.573V0.0440674Z" fill="#229B3C"/>
<path d="M1302.47 47.4068H1326.16L1326.16 71.0882H1302.47V47.4068Z" fill="#229B3C"/>
<path d="M923.573 47.4068H947.254V71.0882H923.573V47.4068Z" fill="#229B3C"/>
<path d="M1491.93 0.0440674H1515.61V23.7254L1491.93 23.7254V0.0440674Z" fill="#229B3C"/>
<path d="M1113.02 0.0440674H1136.71V23.7254H1113.02V0.0440674Z" fill="#229B3C"/>
<path d="M1491.93 47.4068L1515.61 47.4068V71.0882H1491.93V47.4068Z" fill="#229B3C"/>
<path d="M1113.02 47.4068H1136.71V71.0882H1113.02V47.4068Z" fill="#229B3C"/>
</svg>
